G04 ================== begin FILE IDENTIFICATION RECORD ==================*
G04 Layout Name:  E:/PROIECT/P1/allegro/PROIECTPCB.brd*
G04 Film Name:    BOTTOM*
G04 File Format:  Gerber RS274X*
G04 File Origin:  Cadence Allegro 17.2-S025*
G04 Origin Date:  Sat Dec 14 17:09:20 2024*
G04 *
G04 Layer:  ETCH/BOTTOM*
G04 Layer:  PIN/BOTTOM*
G04 Layer:  VIA CLASS/BOTTOM*
G04 *
G04 Offset:    (0.0000 0.0000)*
G04 Mirror:    No*
G04 Mode:      Positive*
G04 Rotation:  0*
G04 FullContactRelief:  No*
G04 UndefLineWidth:     0.1000*
G04 ================== end FILE IDENTIFICATION RECORD ====================*
%FSLAX25Y25*MOMM*%
%IR0*IPPOS*OFA0.00000B0.00000*MIA0B0*SFA1.00000B1.00000*%
%ADD10C,.65*%
%ADD11C,.4*%
%ADD12C,.45*%
G75*
%LPD*%
G75*
G54D10*
X907000Y1429000D03*
X620000Y1060000D03*
X907000Y1862000D03*
X1800000Y621140D03*
X1746000Y1035000D03*
X1052000Y1277000D03*
X1320000Y1040000D03*
X1468000Y1745000D03*
X1618000Y2821000D03*
X1380000Y2866000D03*
X1800000Y2640000D03*
X2477460Y840000D03*
X2164320Y1147320D03*
X1954000Y1345000D03*
X2460000Y2031000D03*
X2060000Y1576260D03*
X2040000Y1900000D03*
X2554000Y1599000D03*
X2432000Y2282000D03*
X2170000Y2748000D03*
X3296000Y640000D03*
X2620000Y1006000D03*
X3140000Y780000D03*
X3263000Y2571000D03*
X3838000Y1126000D03*
X3470000Y1672000D03*
X3474000Y2104000D03*
X3780000Y2318000D03*
X3820000Y3600000D03*
G54D11*
G01X1320000Y1040000D02*
X1267000Y1093000D01*
X1145000D01*
X1052000Y1186000D01*
Y1277000D01*
G01X2554000Y1599000D02*
Y1543000D01*
X2418280Y1407280D01*
X2361720D01*
X2075780Y1693220D01*
X2019220D01*
X1954000Y1628000D01*
Y1345000D01*
G54D12*
G01X3820000Y3600000D02*
Y3720000D01*
X3720000Y3820000D01*
X400000D01*
X200000Y3620000D01*
Y1200000D01*
X340000Y1060000D01*
X620000D01*
G01X907000Y1429000D02*
Y1862000D01*
G01X1800000Y621140D02*
X1752120Y573260D01*
Y229880D01*
X1801000Y181000D01*
X2432460D01*
X2477460Y226000D01*
Y840000D01*
G01X1746000Y1035000D02*
X1663000D01*
X1563000Y1135000D01*
Y1469000D01*
X1468000Y1564000D01*
Y1745000D01*
G01X2460000Y2031000D02*
X1667000D01*
X1618000Y2080000D01*
Y2821000D01*
G01X1380000Y2866000D02*
X1163000D01*
X1104000Y2807000D01*
Y1985000D01*
X1141120Y1947880D01*
X1992120D01*
X2040000Y1900000D01*
G01X2477460Y840000D02*
Y907710D01*
X2575750Y1006000D01*
X2620000D01*
G01X2060000Y1576260D02*
X2106450Y1529810D01*
X2109510D01*
X2164320Y1475000D01*
Y1147320D01*
G01X1800000Y2640000D02*
X2190000Y2250000D01*
X2400000D01*
X2432000Y2282000D01*
G01X3296000Y640000D02*
Y955000D01*
X3189000Y1062000D01*
X2970000D01*
X2916000Y1116000D01*
Y1686000D01*
X2862000Y1740000D01*
X2753000D01*
X2711000Y1782000D01*
Y2687000D01*
X2650000Y2748000D01*
X2170000D01*
G01X3140000Y780000D02*
X3186450Y733550D01*
Y232550D01*
X3229000Y190000D01*
X3644000D01*
X3720000Y266000D01*
Y1294170D01*
X3657170Y1357000D01*
X3581000D01*
X3518000Y1420000D01*
Y1486000D01*
X3444000Y1560000D01*
X3318000D01*
X3263000Y1615000D01*
Y2571000D01*
G01X3474000Y2104000D02*
X3672000D01*
X3838000Y1938000D01*
Y1126000D01*
G01X3780000Y2318000D02*
X3434000D01*
X3362020Y2246020D01*
Y1779980D01*
X3470000Y1672000D01*
M02*
