M48
METRIC,TZ
T01C.4
;LEADER: 12 
;HEADER: 
;CODE  : ASCII 
;FILE  : PROIECTPCB-1-2.drl for  ... layers TOP and BOTTOM
;DESIGN: PROIECTPCB.brd
;T01 Holesize 1. = 0.400000 Tolerance = +0.000000/-0.000000 PLATED MM Quantity = 29
%
G90
T01
X3820000Y3600000
X620000Y1060000
X2554000Y1599000
X1954000Y1345000
X1320000Y1040000
X1052000Y1277000
X1746000Y1035000
X1468000Y1745000
X3140000Y780000
X3263000Y2571000
X2170000Y2748000
X3296000Y640000
X2432000Y2282000
X1800000Y2640000
X2164320Y1147320
X1380000Y2866000
X2040000Y1900000
X2060000Y1576260
X1618000Y2821000
X3474000Y2104000
X3838000Y1126000
X2460000Y2031000
X907000Y1862000
X907000Y1429000
X3780000Y2318000
X3470000Y1672000
X1800000Y621140
X2620000Y1006000
X2477460Y840000
M30
